<?xml version="1.0" standalone="no"?>
<!DOCTYPE svg PUBLIC "-//W3C//DTD SVG 20010904//EN"
 "http://www.w3.org/TR/2001/REC-SVG-20010904/DTD/svg10.dtd">
<svg version="1.0" xmlns="http://www.w3.org/2000/svg"
 width="512.000000pt" height="512.000000pt" viewBox="0 0 512.000000 512.000000"
 preserveAspectRatio="xMidYMid meet">
<metadata>
Created by potrace 1.14, written by Peter Selinger 2001-2017
</metadata>
<g transform="translate(0.000000,512.000000) scale(0.100000,-0.100000)"
fill="#000000" stroke="none">
<path d="M2429 4426 c-2 -2 -35 -6 -74 -9 -187 -15 -395 -71 -573 -153 -41
-19 -75 -34 -77 -34 -9 0 -136 -76 -205 -123 -367 -247 -639 -629 -754 -1057
-14 -52 -28 -115 -31 -140 -4 -24 -8 -47 -10 -50 -17 -27 -25 -357 -13 -492
23 -249 122 -545 255 -766 99 -165 248 -340 391 -462 239 -203 577 -364 857
-410 33 -5 70 -12 82 -14 86 -17 325 -23 448 -12 661 65 1234 468 1513 1066
117 251 174 506 174 785 0 107 -6 219 -16 272 -2 10 -7 38 -11 63 -3 25 -18
90 -32 145 -156 608 -622 1105 -1221 1301 -69 23 -136 40 -192 50 -14 3 -31 7
-38 9 -8 3 -37 8 -65 11 -29 3 -59 8 -67 11 -18 6 -334 15 -341 9z m375 -145
c183 -31 350 -82 496 -153 407 -197 725 -547 878 -968 35 -94 50 -148 65 -220
4 -19 9 -46 12 -60 35 -171 38 -455 5 -605 -5 -22 -11 -56 -14 -75 -3 -19 -17
-75 -31 -124 -92 -319 -289 -623 -537 -834 -328 -277 -712 -415 -1156 -413
-73 0 -140 2 -150 5 -9 2 -44 8 -77 11 -32 4 -62 8 -65 10 -3 2 -25 6 -50 10
-65 10 -268 78 -363 123 -422 198 -747 552 -901 982 -36 100 -73 244 -81 316
-4 32 -9 62 -12 67 -9 15 -11 306 -2 387 46 409 216 767 499 1050 272 271 611
439 1000 494 111 15 383 14 484 -3z"/>
<path d="M3318 3438 c-21 -6 -38 -13 -38 -17 0 -4 -9 -7 -20 -8 -11 -1 -35 -9
-52 -17 -17 -9 -37 -16 -44 -16 -7 0 -19 -7 -28 -15 -8 -9 -17 -15 -18 -14 -2
2 -25 -3 -51 -9 -31 -8 -45 -16 -41 -24 4 -7 3 -8 -4 -4 -6 3 -53 -10 -104
-30 -51 -20 -129 -50 -173 -67 -131 -50 -135 -52 -135 -58 0 -4 -6 -7 -12 -6
-35 1 -49 -4 -42 -15 4 -6 3 -8 -4 -4 -13 8 -94 -23 -87 -34 2 -4 -7 -5 -22
-2 -19 4 -24 2 -18 -8 5 -8 4 -11 -2 -7 -9 6 -33 -2 -148 -48 -11 -4 -25 -9
-32 -11 -7 -1 -27 -10 -45 -19 -18 -9 -42 -18 -53 -21 -11 -2 -38 -11 -60 -20
-87 -36 -103 -42 -175 -69 -41 -16 -77 -32 -78 -37 -2 -4 -8 -6 -13 -3 -5 3
-19 0 -31 -7 -23 -12 -29 -14 -49 -17 -5 0 -8 -5 -5 -9 3 -5 -5 -8 -17 -7 -12
1 -33 -4 -47 -11 -14 -7 -77 -32 -140 -55 -104 -38 -173 -75 -192 -103 -6 -8
17 -66 26 -66 2 0 34 -11 72 -25 38 -14 75 -23 82 -20 6 2 12 0 12 -5 0 -12
78 -33 92 -24 7 4 8 3 4 -4 -4 -7 -1 -13 8 -13 18 -2 25 -3 46 -12 8 -3 61
-20 117 -38 l102 -31 33 23 c18 13 35 27 36 31 2 5 7 6 12 3 4 -2 19 6 34 20
15 13 28 23 30 22 7 -4 86 45 86 54 0 5 6 9 13 9 7 0 22 8 33 18 11 9 26 18
34 20 12 3 68 39 80 52 3 3 23 15 45 27 22 12 39 27 37 33 -1 6 2 9 8 5 14 -9
52 14 44 27 -4 7 -3 8 4 4 7 -4 44 14 84 40 135 87 173 111 205 129 18 10 29
23 26 28 -3 6 -1 7 5 3 6 -4 52 20 102 54 50 33 94 60 98 60 5 0 17 8 28 18
27 25 74 43 106 40 l26 -2 -31 -36 c-18 -20 -36 -34 -41 -32 -5 3 -6 -2 -3
-12 4 -9 3 -15 -2 -11 -6 3 -33 -16 -62 -42 -62 -57 -77 -70 -159 -143 -34
-30 -78 -71 -99 -90 -21 -19 -71 -64 -111 -100 -41 -36 -99 -89 -129 -117 -30
-29 -58 -53 -63 -53 -4 0 -8 -7 -8 -16 0 -8 -3 -13 -8 -10 -4 2 -47 -33 -95
-78 -48 -46 -87 -81 -87 -79 0 1 -9 -6 -19 -16 -15 -15 -20 -40 -26 -122 -4
-57 -8 -120 -10 -139 -2 -19 -6 -86 -10 -148 l-7 -113 37 15 c32 14 150 118
224 200 38 41 82 70 90 59 3 -5 26 -24 51 -41 25 -18 54 -39 65 -47 150 -115
350 -262 371 -273 10 -5 30 -11 44 -12 87 -7 104 21 150 250 12 58 33 157 47
220 14 63 27 126 29 140 2 14 7 36 10 50 3 14 8 34 11 45 2 11 6 34 8 50 2 17
11 59 20 95 9 35 18 80 21 100 3 19 8 38 10 41 2 3 6 19 8 35 3 16 8 40 11 54
3 14 8 39 11 55 3 17 16 80 29 140 14 61 27 122 29 138 3 15 7 35 10 45 3 9 8
29 11 45 3 15 8 39 11 55 25 115 22 163 -11 197 -28 27 -54 30 -117 13z m-384
-196 c3 -5 -1 -9 -9 -9 -8 0 -12 4 -9 9 3 4 7 8 9 8 2 0 6 -4 9 -8z m-79 -42
c-3 -5 -12 -10 -18 -10 -7 0 -6 4 3 10 19 12 23 12 15 0z m-530 -199 c3 -5 2
-12 -3 -15 -5 -3 -9 1 -9 9 0 17 3 19 12 6z m-355 -121 c0 -5 -5 -10 -11 -10
-5 0 -7 5 -4 10 3 6 8 10 11 10 2 0 4 -4 4 -10z m885 -120 c3 -6 -1 -7 -9 -4
-18 7 -21 14 -7 14 6 0 13 -4 16 -10z m-1010 -39 c3 -5 2 -12 -3 -15 -5 -3 -9
1 -9 9 0 17 3 19 12 6z m965 -1 c0 -5 -2 -10 -4 -10 -3 0 -8 5 -11 10 -3 6 -1
10 4 10 6 0 11 -4 11 -10z m-960 -154 c0 -3 -4 -8 -10 -11 -5 -3 -10 -1 -10 4
0 6 5 11 10 11 6 0 10 -2 10 -4z m1237 -171 c0 -8 -4 -12 -9 -9 -5 3 -6 10 -3
15 9 13 12 11 12 -6z"/>
</g>
</svg>
